<svg xmlns="http://www.w3.org/2000/svg" width="210" height="98" viewBox="0 0 210 98">
  <path id="Marites" class="cls-1" d="M74.935,66.2C73,66.2,72.7,61.348,72.7,57.989c0-3.545.3-7.153,0.362-8.832,0.121-2.612.3-5.163,0.3-7.713a34.449,34.449,0,0,0-.241-4.354c-0.6-4.665-4.465-10.512-8.567-10.512a4.083,4.083,0,0,0-2.655.933c-1.448,1.057-3.258,6.531-4.827,12.253-1.81,6.655-3.379,13.622-3.56,14.741,0-.622.06-1.368,0.06-2.177,0-5.287-.543-14.244-1.629-19.22-1.026-4.665-5.611-8.77-9.231-8.77a3.2,3.2,0,0,0-2.594,1.182c-1.75,1.928-3.439,7.028-4.947,13.186-2.172,9.019-3.8,19.033-3.982,20.526,0-2.986.905-13.311,0.905-20.588a38.7,38.7,0,0,0-.181-4.852c-0.6-4.789-5.189-7.65-8.748-7.65a7.211,7.211,0,0,0-1.207.124c-3.62.746-7.723,4.478-8.567,6.158A2.712,2.712,0,0,0,15.869,34.1a3.945,3.945,0,0,0,1.086-.187,12.218,12.218,0,0,0,3.68-1.928,6.162,6.162,0,0,1,2.9-1.306,1.785,1.785,0,0,1,.965.311c0.6,0.435.845,2.177,0.845,4.354,0,3.545-.543,8.273-0.664,10.512-0.241,4.043-.664,9.7-0.664,14.368a26.66,26.66,0,0,0,.543,6.469c1.327,4.789,5.49,6.966,7.964,6.966a1.807,1.807,0,0,0,.6-0.062c0.121-3.11,2.172-14.492,4.585-24.818,2.232-9.641,4.706-18.847,6.154-18.847,1.81,0,2.112,9.019,2.172,16.918,0.06,7.4.06,15.861,0.3,17.354a8.2,8.2,0,0,0,7.9,6.966,4.431,4.431,0,0,0,.905-0.062V70.429c0-4.167,1.87-14.057,4.042-22.765,2.112-8.4,4.465-15.612,5.671-15.612,1.146,0,1.448,3.483,1.448,7.091,0,3.234-.241,6.655-0.3,7.713-0.121,2.488-.241,5.536-0.241,8.521,0,3.732.181,7.34,0.845,9.454a7.961,7.961,0,0,0,7.542,5.909c3.8,0,7.662-4.23,7.662-7.9a2.452,2.452,0,0,0-1.569-2.488C79.762,62.592,77.107,66.2,74.935,66.2Zm27.514,0.373c-0.905-.435-1.207-2.675-1.207-5.6,0-3.608.422-8.4,0.784-11.942,0.181-1.866.3-3.421,0.3-4.043-0.06-2.737-3.439-4.976-5.309-4.976a1,1,0,0,0-1.146.933,19.39,19.39,0,0,1-.241,2.239,9.292,9.292,0,0,0-7.662-4.167,8.141,8.141,0,0,0-3.2.622c-5.008,2.053-7.481,9.7-7.481,16.048v0.684a21.541,21.541,0,0,0,2.836,10.387c1.448,2.364,3.439,3.794,5.49,3.794a4.834,4.834,0,0,0,1.569-.249c3.8-1.368,6.7-10.138,7.542-13.124,0,0.249-.06.5-0.06,0.746-0.06,1-.121,1.8-0.121,2.612a25,25,0,0,0,.724,5.6,5.244,5.244,0,0,0,1.991,2.8,8.881,8.881,0,0,0,4.766,1.8c3.741,0,6.758-3.359,7.783-6.469a5.692,5.692,0,0,0,.181-1.368,2.5,2.5,0,0,0-1.508-2.612c-0.543,2.115-3.017,6.531-5.189,6.531A2.183,2.183,0,0,1,102.449,66.573ZM86.762,65.08c-0.905,0-1.75-2.986-1.75-6.158,0-5.1,1.448-12.253,3.922-14.928a2.983,2.983,0,0,1,2.112-1.057c1.991,0,3.56,2.8,3.741,4.789a56.559,56.559,0,0,1-4.947,14.182C88.753,63.836,87.667,65.08,86.762,65.08Zm25.7-2.053a20.22,20.22,0,0,1,1.448-6.282,29.955,29.955,0,0,1,2.232-4.852,9.391,9.391,0,0,0,7.964,4.23c3.439,0,6.275-1.928,6.275-5.1,0-1.493-.664-2.426-1.689-2.55a4.778,4.778,0,0,1-4.224,3.732,1.991,1.991,0,0,1-.6-0.062c-2.9-.622-3.982-3.856-3.982-3.856s2.474-2.923,2.474-4.6a5.027,5.027,0,0,0-4.525-4.6,1.857,1.857,0,0,0-1.267.435,7.148,7.148,0,0,0-1.991,3.919,9.274,9.274,0,0,0-.121,3.607,29.138,29.138,0,0,0-1.81,4.789V49.406c0-2.612-.121-5.163-1.327-7.029a5.157,5.157,0,0,0-4.284-2.737,4.465,4.465,0,0,0-1.267.187,17.149,17.149,0,0,1,.241,2.986c0,1.431-.06,3.234-0.12,5.225-0.061,2.426-.121,5.847-0.121,8.4,0,4.541.241,8.832,0.965,10.7a5.436,5.436,0,0,0,4.586,3.359,2.68,2.68,0,0,0,1.387-.311C112.525,67.755,112.465,65.578,112.465,63.027ZM125.377,65.7a7.38,7.38,0,0,0,7.179,5.1c2.595,0,4.948-1.8,6.637-4.914a8.412,8.412,0,0,0,1.026-3.545,2.158,2.158,0,0,0-1.629-2.115,12.6,12.6,0,0,1-2.957,4.976,3.535,3.535,0,0,1-2.051,1.182,1.576,1.576,0,0,1-1.388-.622c-0.663-.871-0.724-2.55-0.724-4.416,0-3.359.362-6.531,0.6-9.7,0.12-1.928.3-3.732,0.3-5.349A10.656,10.656,0,0,0,131.651,42a5.99,5.99,0,0,0-5.429-3.794h-0.483c0,3.608-.422,7.215-0.724,10.7-0.241,3.359-.543,6.655-0.543,9.641A21.592,21.592,0,0,0,125.377,65.7Zm2.775-39.559a3.5,3.5,0,0,0-2.956,1.182,2.58,2.58,0,0,0-.483,1.493,4.55,4.55,0,0,0,1.207,2.8,7.386,7.386,0,0,0,5.188,2.488c1.629,0,3.379-.809,3.379-2.55a4.992,4.992,0,0,0-2.534-4.105A7.166,7.166,0,0,0,128.152,26.143ZM145.166,70.8a8.835,8.835,0,0,0,8.568-6.158,5.324,5.324,0,0,0,.362-1.928c0-1.742-1.026-2.55-1.69-2.612-0.6,3.607-3.62,6.966-6.033,6.966a2.066,2.066,0,0,1-1.448-.5c-1.086-.871-1.569-3.856-1.569-7.9A121.963,121.963,0,0,1,144.2,45.86c0.241-1.244.422-2.55,0.543-3.794a24.332,24.332,0,0,0,3.56-.373c2.051-.373,2.775-1.12,2.775-2.115a2.887,2.887,0,0,0-.181-1,16.243,16.243,0,0,1-2.775.187c-0.966,0-1.991-.062-3.138-0.062,0.061-1.12.061-2.115,0.061-3.048a18.323,18.323,0,0,0-.181-3.3c-0.966-4.167-3.2-5.909-4.948-5.909a2.066,2.066,0,0,0-1.508.56c-0.6,1.928-.6,3.732-0.6,6.718,0,2.053,0,3.421-.061,5.1a18.074,18.074,0,0,0-3.861.435,1.01,1.01,0,0,0-.483,1.057,6.331,6.331,0,0,0,.242,1.555c0.3,0,1.93.124,4.042,0.187-0.06.809-.121,1.866-0.121,2.55-0.241,4.976-.422,9.828-0.422,13.56a24.7,24.7,0,0,0,.543,6.655C138.771,68.066,140.822,70.8,145.166,70.8ZM165.74,51.4A7.848,7.848,0,0,0,169,45.363a6.71,6.71,0,0,0-.663-2.985c-1.086-2.488-4.586-4.354-8.205-4.354a9.74,9.74,0,0,0-8.326,4.6,22.194,22.194,0,0,0-3.2,12.067c0,4.292.965,8.459,3.137,11.258a12.5,12.5,0,0,0,10.2,4.789,13.736,13.736,0,0,0,9.473-3.794,11.255,11.255,0,0,0,3.378-6.22,3.086,3.086,0,0,0,.061-0.746c0-1.617-.845-2.861-1.991-2.861a12.851,12.851,0,0,1-3.379,6.78,8.426,8.426,0,0,1-5.852,2.8,6.121,6.121,0,0,1-4.585-2.239c-2.052-2.177-2.776-6.033-2.776-10.014A15.3,15.3,0,0,0,165.74,51.4Zm-4.525-10.263c1.267,0,2.353,1.617,2.353,3.359a6.885,6.885,0,0,1-2.775,5.225,12.023,12.023,0,0,1-4.4,1.8C156.932,46.545,158.863,41.133,161.215,41.133Zm14.24-1.555a5.52,5.52,0,0,0-.242,1.742,11.05,11.05,0,0,0,.3,2.364,82.617,82.617,0,0,1-2.172,8.459,60,60,0,0,1-2.534,6.842,2.027,2.027,0,0,1-.362-0.5c-1.689.622-2.232,2.239-2.232,3.919a6.58,6.58,0,0,0,.6,2.861c2.474,5.1,9.352,6.593,14.3,6.593A18.848,18.848,0,0,0,193.8,67.941a6.681,6.681,0,0,0,2.836-5.163,2.355,2.355,0,0,0-1.69-2.488,10.729,10.729,0,0,1-3.258,4.727,28.105,28.105,0,0,1-3.982,2.737,15.769,15.769,0,0,0,1.991-7.028c0-4.541-1.991-8.024-3.8-11.756,0,0-1.327-2.612-2.413-4.665a3.464,3.464,0,0,1-.422-1.679,4.334,4.334,0,0,1,.784-2.488c0.6-.809,2.051-1,2.051-1.8a1.733,1.733,0,0,0-1.448-1.244,16.384,16.384,0,0,0-3.378-.56C178.471,36.53,176.179,37.463,175.455,39.578Zm0.663,16.172c0.664-1.99,1.267-4.043,1.81-6.033a52.821,52.821,0,0,1,2.715,5.971,25.953,25.953,0,0,1,1.871,8.086c0,1.493-.362,2.737-1.388,3.3a2.386,2.386,0,0,1-1.146.249c-2.595,0-6.577-2.675-6.878-3.981C173.645,61.535,175.153,58.611,176.118,55.75Z"/>
</svg>
